<svg width="60" height="60" viewBox="0 0 60 60" fill="none" xmlns="http://www.w3.org/2000/svg">
<path d="M52.3774 9.59599C44.7589 1.16238 35.4473 -0.287149 31.7439 0.042289V28.3739H40.9496C39.9338 20.4674 48.1449 12.5609 52.3774 9.59599Z" fill="#B22727"/>
<path d="M52.3774 50.404C44.7589 58.8376 35.4473 60.2871 31.7439 59.9577V31.6261H40.9496C39.9338 39.5326 48.1449 47.4391 52.3774 50.404Z" fill="#B22727"/>
<path d="M8.25335 9.59605C15.8719 1.16244 25.1834 -0.287088 28.8868 0.04235V28.374H19.6811C20.6969 20.4675 12.4859 12.561 8.25335 9.59605Z" fill="#B22727"/>
<path d="M8.25335 50.404C15.8719 58.8376 25.1834 60.2871 28.8868 59.9577V31.6261H19.6811C20.6969 39.5326 12.4859 47.4391 8.25335 50.404Z" fill="#B22727"/>
<path d="M53.9687 11.8598C45.5883 15.8131 43.7048 24.2686 43.8107 28.0023H60C59.4921 19.0415 55.7675 13.507 53.9687 11.8598Z" fill="#B22727"/>
<path d="M53.9687 47.7685C45.5883 43.8152 43.7048 35.3597 43.8107 31.626H60C59.4921 40.5867 55.7675 46.1213 53.9687 47.7685Z" fill="#B22727"/>
<path d="M6.03131 11.8598C14.4117 15.8131 16.2952 24.2686 16.1893 28.0023H-2.09808e-05C0.50788 19.0415 4.23249 13.507 6.03131 11.8598Z" fill="#B22727"/>
<path d="M6.03131 47.7685C14.4117 43.8152 16.2952 35.3597 16.1893 31.626H-2.09808e-05C0.50788 40.5867 4.23249 46.1213 6.03131 47.7685Z" fill="#B22727"/>
<path d="M25.8523 34H22.7585V25.2727H25.8778C26.7557 25.2727 27.5114 25.4474 28.1449 25.7969C28.7784 26.1435 29.2656 26.642 29.6065 27.2926C29.9503 27.9432 30.1222 28.7216 30.1222 29.6278C30.1222 30.5369 29.9503 31.3182 29.6065 31.9716C29.2656 32.625 28.7756 33.1264 28.1364 33.4759C27.5 33.8253 26.7386 34 25.8523 34ZM24.6037 32.419H25.7756C26.321 32.419 26.7798 32.3224 27.152 32.1293C27.527 31.9332 27.8082 31.6307 27.9957 31.2216C28.1861 30.8097 28.2812 30.2784 28.2812 29.6278C28.2812 28.983 28.1861 28.456 27.9957 28.0469C27.8082 27.6378 27.5284 27.3366 27.1562 27.1435C26.7841 26.9503 26.3253 26.8537 25.7798 26.8537H24.6037V32.419ZM33.529 34V25.2727H37.0233C37.6654 25.2727 38.2009 25.3679 38.6298 25.5582C39.0588 25.7486 39.3813 26.0128 39.5972 26.3509C39.8131 26.6861 39.921 27.0724 39.921 27.5099C39.921 27.8509 39.8529 28.1506 39.7165 28.4091C39.5801 28.6648 39.3926 28.875 39.154 29.0398C38.9182 29.2017 38.6483 29.3168 38.3443 29.3849V29.4702C38.6767 29.4844 38.9878 29.5781 39.2776 29.7514C39.5702 29.9247 39.8074 30.1676 39.9892 30.4801C40.171 30.7898 40.2619 31.1591 40.2619 31.5881C40.2619 32.0511 40.1469 32.4645 39.9168 32.8281C39.6895 33.1889 39.3529 33.4744 38.9068 33.6847C38.4608 33.8949 37.9111 34 37.2577 34H33.529ZM35.3742 32.4915H36.8784C37.3926 32.4915 37.7676 32.3935 38.0034 32.1974C38.2392 31.9986 38.3571 31.7344 38.3571 31.4048C38.3571 31.1634 38.2989 30.9503 38.1824 30.7656C38.0659 30.581 37.8997 30.4361 37.6838 30.331C37.4708 30.2259 37.2165 30.1733 36.921 30.1733H35.3742V32.4915ZM35.3742 28.9247H36.7421C36.9949 28.9247 37.2193 28.8807 37.4154 28.7926C37.6142 28.7017 37.7705 28.5739 37.8841 28.4091C38.0006 28.2443 38.0588 28.0469 38.0588 27.8168C38.0588 27.5014 37.9466 27.2472 37.7222 27.054C37.5006 26.8608 37.1852 26.7642 36.7762 26.7642H35.3742V28.9247Z" fill="#ECDFE1"/>
</svg>
